<svg xmlns="http://www.w3.org/2000/svg" viewBox="0 0 64 64"><defs><style>.cls-1{fill:#000000;}</style></defs><title>9-Notify</title><g id="_9-Notify" data-name="9-Notify"><rect class="cls-1" x="6" y="23" width="2" height="2"/><path class="cls-1" d="M44,2H20A20,20,0,0,0,0,22v8A20,20,0,0,0,20,50h7V61a1,1,0,0,0,1.71.71L40.41,50H44A20,20,0,0,0,64,30V22A20,20,0,0,0,44,2ZM62,30A18,18,0,0,1,44,48H40a1,1,0,0,0-.71.29L29,58.59V49a1,1,0,0,0-1-1H20A18,18,0,0,1,2,30V22A18,18,0,0,1,20,4H44A18,18,0,0,1,62,22Z"/><path class="cls-1" d="M32,18a4,4,0,1,0-4-4A4,4,0,0,0,32,18Zm0-6a2,2,0,1,1-2,2A2,2,0,0,1,32,12Z"/><path class="cls-1" d="M38,36H36V21a1,1,0,0,0-1-1H27a1,1,0,0,0-1,1v4a1,1,0,0,0,1,1h3V36H28a1,1,0,0,0-1,1v4a1,1,0,0,0,1,1H38a1,1,0,0,0,1-1V37A1,1,0,0,0,38,36Zm-1,4H29V38h2a1,1,0,0,0,1-1V25a1,1,0,0,0-1-1H28V22h6V37a1,1,0,0,0,1,1h2Z"/><path class="cls-1" d="M6,21H8c0-9.84,8.63-10,9-10V9C16.89,9,6,9.14,6,21Z"/><rect class="cls-1" x="6" y="23" width="2" height="2"/></g></svg>